<svg width="40" height="40" viewBox="0 0 40 40" fill="none" xmlns="http://www.w3.org/2000/svg">
<path d="M35 13.3334C34.558 13.3334 34.134 13.509 33.8215 13.8216C33.5089 14.1341 33.3333 14.5581 33.3333 15.0001V28.3334C33.3333 28.7754 33.1577 29.1994 32.8452 29.5119C32.5326 29.8245 32.1087 30.0001 31.6666 30.0001H8.33331C7.89129 30.0001 7.46736 29.8245 7.1548 29.5119C6.84224 29.1994 6.66665 28.7754 6.66665 28.3334V12.3501L16.4666 22.1501C17.4042 23.0864 18.675 23.6123 20 23.6123C21.325 23.6123 22.5958 23.0864 23.5333 22.1501L29.5166 16.1834C29.8305 15.8696 30.0068 15.4439 30.0068 15.0001C30.0068 14.5562 29.8305 14.1306 29.5166 13.8167C29.2028 13.5029 28.7772 13.3266 28.3333 13.3266C27.8895 13.3266 27.4638 13.5029 27.15 13.8167L21.1833 19.8001C21.0284 19.9563 20.844 20.0803 20.6409 20.1649C20.4378 20.2495 20.22 20.2931 20 20.2931C19.78 20.2931 19.5621 20.2495 19.359 20.1649C19.1559 20.0803 18.9716 19.9563 18.8166 19.8001L9.01665 10.0001H21.6666C22.1087 10.0001 22.5326 9.82449 22.8452 9.51193C23.1577 9.19936 23.3333 8.77544 23.3333 8.33341C23.3333 7.89139 23.1577 7.46746 22.8452 7.1549C22.5326 6.84234 22.1087 6.66675 21.6666 6.66675H8.33331C7.00723 6.66675 5.73546 7.19353 4.79778 8.13121C3.8601 9.0689 3.33331 10.3407 3.33331 11.6667V28.3334C3.33331 29.6595 3.8601 30.9313 4.79778 31.8689C5.73546 32.8066 7.00723 33.3334 8.33331 33.3334H31.6666C32.9927 33.3334 34.2645 32.8066 35.2022 31.8689C36.1399 30.9313 36.6666 29.6595 36.6666 28.3334V15.0001C36.6666 14.5581 36.4911 14.1341 36.1785 13.8216C35.8659 13.509 35.442 13.3334 35 13.3334ZM28.3333 10.0001H35C35.442 10.0001 35.8659 9.82449 36.1785 9.51193C36.4911 9.19936 36.6666 8.77544 36.6666 8.33341C36.6666 7.89139 36.4911 7.46746 36.1785 7.1549C35.8659 6.84234 35.442 6.66675 35 6.66675H28.3333C27.8913 6.66675 27.4674 6.84234 27.1548 7.1549C26.8422 7.46746 26.6666 7.89139 26.6666 8.33341C26.6666 8.77544 26.8422 9.19936 27.1548 9.51193C27.4674 9.82449 27.8913 10.0001 28.3333 10.0001Z" fill="#FFA97A"/>
</svg>
