<svg width="40" height="40" viewBox="0 0 40 40" fill="none" xmlns="http://www.w3.org/2000/svg">
<path d="M38.3187 6.5836C38.3189 6.28921 38.241 6.00003 38.0931 5.7455C37.9452 5.49098 37.7325 5.28021 37.4766 5.13465C37.2207 4.98909 36.9308 4.91394 36.6364 4.91687C36.3421 4.91979 36.0537 5.00068 35.8008 5.1513C34.8253 5.73194 33.775 6.1766 32.6791 6.47296C31.1141 5.13002 29.118 4.39513 27.0558 4.40264C24.7934 4.40525 22.6206 5.28697 20.9961 6.86161C19.3717 8.43626 18.4228 10.5806 18.3497 12.8418C13.8897 12.1305 9.84745 9.80265 6.99381 6.30201C6.82187 6.0934 6.60229 5.9292 6.35358 5.82326C6.10487 5.71731 5.83433 5.67272 5.56478 5.69326C5.29538 5.71544 5.03543 5.80292 4.80743 5.94811C4.57942 6.09331 4.39022 6.29186 4.25618 6.52659C3.56872 7.72628 3.17389 9.07119 3.10376 10.4521C3.03362 11.833 3.29016 13.211 3.85253 14.4742L3.84928 14.4774C3.59652 14.6331 3.38793 14.851 3.24345 15.1103C3.09897 15.3697 3.02344 15.6617 3.02408 15.9586C3.02102 16.2034 3.0357 16.4482 3.06803 16.691C3.23825 18.7881 4.16766 20.7511 5.68196 22.2118C5.57923 22.4075 5.51653 22.6217 5.49753 22.8419C5.47853 23.0622 5.5036 23.2839 5.57128 23.4944C6.23147 25.5513 7.63544 27.2878 9.50846 28.3641C7.60553 29.1 5.55083 29.3566 3.52538 29.1112C3.1505 29.0642 2.77076 29.146 2.44846 29.3431C2.12615 29.5403 1.88042 29.8411 1.75157 30.1963C1.62272 30.5514 1.61839 30.9398 1.73931 31.2978C1.86023 31.6557 2.09921 31.962 2.41704 32.1662C5.90053 34.4098 9.9565 35.6027 14.1 35.6021C18.7988 35.655 23.3833 34.1535 27.1404 31.3312C30.8975 28.5089 33.6166 24.5241 34.8747 19.9966C35.4631 18.0243 35.7635 15.9774 35.7667 13.9192C35.7667 13.8101 35.7667 13.6978 35.765 13.5855C36.6352 12.6471 37.3093 11.5444 37.7478 10.342C38.1863 9.1397 38.3804 7.86192 38.3187 6.5836V6.5836ZM32.8076 11.9368C32.5323 12.2624 32.393 12.6814 32.4186 13.107C32.4349 13.382 32.4333 13.6587 32.4333 13.9192C32.4298 15.6584 32.1749 17.388 31.6764 19.0543C30.6489 22.9066 28.3584 26.3027 25.1716 28.6986C21.9848 31.0945 18.0861 32.3517 14.1 32.2688C12.6681 32.2693 11.2412 32.101 9.84869 31.7675C11.6244 31.1953 13.2847 30.313 14.7527 29.1617C15.023 28.9488 15.2209 28.6575 15.3191 28.3277C15.4174 27.9979 15.4111 27.6458 15.3013 27.3196C15.1914 26.9935 14.9834 26.7094 14.7056 26.5062C14.4279 26.303 14.0941 26.1908 13.75 26.1848C12.3647 26.1633 11.0419 25.6049 10.0602 24.6272C10.3092 24.58 10.5566 24.5214 10.8024 24.4514C11.1624 24.349 11.4775 24.1283 11.6968 23.825C11.9162 23.5217 12.0271 23.1534 12.0117 22.7794C11.9963 22.4054 11.8555 22.0474 11.6119 21.7632C11.3683 21.479 11.0362 21.285 10.6689 21.2125C9.86484 21.0537 9.10819 20.7116 8.4578 20.2128C7.80742 19.714 7.28082 19.0719 6.91894 18.3365C7.22016 18.3776 7.52329 18.4032 7.82714 18.413C8.18811 18.4185 8.54147 18.309 8.8361 18.1004C9.13074 17.8917 9.35139 17.5948 9.46614 17.2525C9.57611 16.9071 9.57045 16.5353 9.45002 16.1934C9.3296 15.8515 9.10098 15.5582 8.79883 15.358C8.06574 14.8696 7.46523 14.207 7.05109 13.4296C6.63694 12.6521 6.42209 11.7841 6.42578 10.9033C6.42578 10.7926 6.42903 10.6819 6.43554 10.5729C10.171 14.0566 15.0161 16.1103 20.1172 16.372C20.3747 16.3822 20.6311 16.3337 20.8671 16.2302C21.1031 16.1267 21.3125 15.9709 21.4795 15.7747C21.6448 15.5765 21.7619 15.3427 21.8214 15.0916C21.881 14.8405 21.8815 14.579 21.8229 14.3277C21.7275 13.93 21.6789 13.5225 21.678 13.1135C21.6795 11.6878 22.2466 10.3208 23.2548 9.31265C24.2629 8.30448 25.6299 7.73743 27.0557 7.73593C27.7892 7.73396 28.5152 7.88409 29.1878 8.17684C29.8604 8.46959 30.4651 8.89859 30.9635 9.43678C31.1558 9.64358 31.3977 9.79777 31.6663 9.88467C31.935 9.97157 32.2214 9.9883 32.4983 9.93326C33.183 9.80002 33.8578 9.62058 34.5182 9.39616C34.0677 10.3178 33.4921 11.1727 32.8076 11.9368V11.9368Z" fill="#FFA97A"/>
</svg>
