<svg width="40" height="40" viewBox="0 0 40 40" fill="none" xmlns="http://www.w3.org/2000/svg">
<path d="M28.9 9.09992C28.5044 9.09992 28.1177 9.21722 27.7888 9.43698C27.4599 9.65674 27.2036 9.9691 27.0522 10.3346C26.9008 10.7 26.8612 11.1021 26.9384 11.4901C27.0156 11.8781 27.2061 12.2344 27.4858 12.5141C27.7655 12.7938 28.1218 12.9843 28.5098 13.0615C28.8978 13.1387 29.2999 13.0991 29.6653 12.9477C30.0308 12.7963 30.3432 12.54 30.5629 12.2111C30.7827 11.8822 30.9 11.4955 30.9 11.0999C30.9 10.5695 30.6893 10.0608 30.3142 9.68571C29.9391 9.31063 29.4304 9.09992 28.9 9.09992ZM36.5667 13.1333C36.5342 11.7504 36.2752 10.3823 35.8 9.08325C35.3762 7.97181 34.7166 6.96538 33.8666 6.13325C33.0414 5.27896 32.0326 4.62355 30.9166 4.21659C29.6211 3.72685 28.2514 3.46194 26.8666 3.43325C25.1 3.33325 24.5333 3.33325 20 3.33325C15.4666 3.33325 14.9 3.33325 13.1333 3.43325C11.7486 3.46194 10.3789 3.72685 9.08331 4.21659C7.96944 4.62767 6.96154 5.28252 6.13331 6.13325C5.27902 6.95855 4.62361 7.96732 4.21665 9.08325C3.72691 10.3788 3.462 11.7485 3.43331 13.1333C3.33331 14.8999 3.33331 15.4666 3.33331 19.9999C3.33331 24.5333 3.33331 25.0999 3.43331 26.8666C3.462 28.2513 3.72691 29.621 4.21665 30.9166C4.62361 32.0325 5.27902 33.0413 6.13331 33.8666C6.96154 34.7173 7.96944 35.3722 9.08331 35.7833C10.3789 36.273 11.7486 36.5379 13.1333 36.5666C14.9 36.6666 15.4666 36.6666 20 36.6666C24.5333 36.6666 25.1 36.6666 26.8666 36.5666C28.2514 36.5379 29.6211 36.273 30.9166 35.7833C32.0326 35.3763 33.0414 34.7209 33.8666 33.8666C34.7204 33.0376 35.3805 32.0302 35.8 30.9166C36.2752 29.6176 36.5342 28.2494 36.5667 26.8666C36.5667 25.0999 36.6666 24.5333 36.6666 19.9999C36.6666 15.4666 36.6666 14.8999 36.5667 13.1333ZM33.5666 26.6666C33.5545 27.7245 33.3629 28.7728 33 29.7666C32.7339 30.4919 32.3064 31.1473 31.75 31.6833C31.2094 32.2341 30.5554 32.6606 29.8333 32.9333C28.8395 33.2962 27.7913 33.4878 26.7333 33.4999C25.0666 33.5833 24.45 33.5999 20.0666 33.5999C15.6833 33.5999 15.0666 33.5999 13.4 33.4999C12.3015 33.5205 11.2076 33.3513 10.1666 32.9999C9.47628 32.7134 8.85224 32.2879 8.33331 31.7499C7.78013 31.2145 7.35805 30.5586 7.09998 29.8333C6.69307 28.8252 6.46739 27.7532 6.43331 26.6666C6.43331 24.9999 6.33331 24.3833 6.33331 19.9999C6.33331 15.6166 6.33331 14.9999 6.43331 13.3333C6.44078 12.2517 6.63823 11.1798 7.01665 10.1666C7.31006 9.4631 7.76042 8.83602 8.33331 8.33325C8.83967 7.7602 9.46546 7.30508 10.1666 6.99992C11.1826 6.63332 12.2533 6.44172 13.3333 6.43325C15 6.43325 15.6166 6.33325 20 6.33325C24.3833 6.33325 25 6.33325 26.6666 6.43325C27.7246 6.44539 28.7728 6.637 29.7666 6.99992C30.524 7.28101 31.2038 7.738 31.75 8.33325C32.2962 8.84522 32.7229 9.47114 33 10.1666C33.3704 11.1815 33.5621 12.2529 33.5666 13.3333C33.65 14.9999 33.6666 15.6166 33.6666 19.9999C33.6666 24.3833 33.65 24.9999 33.5666 26.6666ZM20 11.4499C18.3097 11.4532 16.6583 11.9575 15.2544 12.8989C13.8506 13.8404 12.7573 15.1769 12.1127 16.7395C11.4681 18.3021 11.3012 20.0207 11.633 21.6781C11.9648 23.3356 12.7804 24.8575 13.9768 26.0515C15.1732 27.2456 16.6967 28.0583 18.3547 28.3868C20.0128 28.7154 21.7311 28.5451 23.2924 27.8975C24.8538 27.2499 26.1881 26.154 27.1269 24.7483C28.0656 23.3426 28.5666 21.6902 28.5666 19.9999C28.5689 18.8751 28.3487 17.7609 27.9187 16.7215C27.4888 15.6821 26.8576 14.7379 26.0614 13.9433C25.2653 13.1487 24.3199 12.5194 23.2796 12.0915C22.2394 11.6636 21.1248 11.4455 20 11.4499ZM20 25.5499C18.9023 25.5499 17.8293 25.2244 16.9166 24.6146C16.0039 24.0047 15.2925 23.1379 14.8724 22.1238C14.4524 21.1097 14.3425 19.9938 14.5566 18.9172C14.7708 17.8406 15.2994 16.8517 16.0755 16.0755C16.8517 15.2993 17.8406 14.7707 18.9172 14.5566C19.9938 14.3424 21.1097 14.4523 22.1239 14.8724C23.138 15.2925 24.0048 16.0038 24.6146 16.9165C25.2245 17.8292 25.55 18.9022 25.55 19.9999C25.55 20.7288 25.4064 21.4505 25.1275 22.1238C24.8486 22.7972 24.4398 23.409 23.9244 23.9244C23.4091 24.4397 22.7972 24.8485 22.1239 25.1275C21.4505 25.4064 20.7288 25.5499 20 25.5499Z" fill="#FFA97A"/>
</svg>
